<svg width="186" height="67" viewBox="0 0 186 67" fill="none" xmlns="http://www.w3.org/2000/svg">
<path d="M165.172 7.36084C156.298 4.35846 98.1503 4.97258 70.1859 5.65494C13.3327 7.36083 4.6661 9.06676 1.89278 28.8552C-0.880551 48.6437 2.58611 59.9026 15.4127 61.6085C28.2394 63.3144 80.912 64.8832 110.746 65.7027C140.013 66.5066 187.012 71.1616 184.932 42.5024C182.852 13.8433 176.266 11.1138 165.172 7.36084Z" fill="#421B05" stroke="#421B05"/>
<path d="M165.172 3.26668C156.298 0.264294 98.1503 0.878419 70.1859 1.56078C13.3327 3.26667 4.6661 4.97259 1.89278 24.7611C-0.88055 44.5495 2.58611 55.8085 15.4127 57.5144C28.2394 59.2203 80.9228 60.4687 110.746 61.6085C140.706 62.7536 187.012 67.0674 184.932 38.4083C182.852 9.74912 176.266 7.01967 165.172 3.26668Z" fill="url(#paint0_linear)" stroke="#421B05"/>
<mask id="mask0" mask-type="alpha" maskUnits="userSpaceOnUse" x="0" y="0" width="186" height="64">
<path d="M165.172 3.26668C156.298 0.264294 98.1503 0.878419 70.1859 1.56078C13.3327 3.26667 4.6661 4.97259 1.89278 24.7611C-0.88055 44.5495 2.58611 55.8085 15.4127 57.5144C28.2394 59.2203 80.9228 60.4687 110.746 61.6085C140.706 62.7536 187.012 67.0674 184.932 38.4083C182.852 9.74912 176.266 7.01967 165.172 3.26668Z" fill="url(#paint1_linear)" stroke="#112B56"/>
</mask>
<g mask="url(#mask0)">
<path opacity="0.5" d="M87.2975 39.1724C15.7625 40.3168 -5.58705 16.5228 -7.31997 4.48284C63.2677 -7.79558 203.681 -28.8477 200.631 -14.8288C196.818 2.69472 176.716 37.7419 87.2975 39.1724Z" fill="#FFB489"/>
</g>
<path d="M165.172 3.26668C156.298 0.264294 98.1503 0.878419 70.1859 1.56078C13.3327 3.26667 4.6661 4.97259 1.89278 24.7611C-0.88055 44.5495 2.58611 55.8085 15.4127 57.5144C28.2394 59.2203 80.9228 60.4687 110.746 61.6085C140.706 62.7536 187.012 67.0674 184.932 38.4083C182.852 9.74912 176.266 7.01967 165.172 3.26668Z" fill="url(#paint2_linear)"/>
<path d="M152.968 7.68716C145.578 5.15637 97.1554 5.67404 73.868 6.24922C26.5234 7.68716 19.3063 9.12512 16.9968 25.8053C14.6873 42.4855 17.5742 51.976 28.2556 53.4139C38.937 54.8519 82.8092 55.9042 107.644 56.865C132.594 57.8303 171.155 61.4665 169.423 37.3089C167.691 13.1514 162.206 10.8507 152.968 7.68716Z" fill="url(#paint3_linear)" fill-opacity="0.5"/>
<path d="M165.172 3.26668C156.298 0.264294 98.1503 0.878419 70.1859 1.56078C13.3327 3.26667 4.6661 4.97259 1.89278 24.7611C-0.88055 44.5495 2.58611 55.8085 15.4127 57.5144C28.2394 59.2203 80.9228 60.4687 110.746 61.6085C140.706 62.7536 187.012 67.0674 184.932 38.4083C182.852 9.74912 176.266 7.01967 165.172 3.26668Z" stroke="#421B05"/>
<path d="M8.62663 20.1061C8.97329 15.7845 17.5013 6.8683 48.8399 5.77652C88.0131 4.4118 141.4 5.09416 145.56 5.09416C149.72 5.09416 170.866 6.1177 174.333 17.3767" stroke="#FCA656" stroke-opacity="0.4" stroke-width="4" stroke-linecap="round"/>
<path d="M5.50665 47.7417C6.31554 50.2437 11.1226 55.3159 23.8799 55.5889C39.8266 55.93 148.68 61.0477 159.08 59.0007C169.48 56.9536 178.493 52.5182 180.573 47.7417" stroke="#E89F32" stroke-opacity="0.2" stroke-width="4" stroke-linecap="round"/>
<path opacity="0.4" d="M6.20002 29.6592C7.30935 32.9345 11.0533 21.4708 11.0533 21.4708C11.0533 21.4708 12.856 16.9673 20.0666 12.6001C29.08 7.14126 16.6 7.82362 11.0533 12.6001C5.50669 17.3767 4.81336 25.565 6.20002 29.6592Z" fill="white"/>
<path opacity="0.8" d="M14.761 53.3399C16.3195 53.0223 11.2709 50.752 11.2709 50.752C11.2709 50.752 9.30526 49.7129 7.68993 46.2831C5.67077 41.996 5.31878 47.566 7.21011 50.2797C9.10144 52.9934 12.813 53.7368 14.761 53.3399Z" fill="#FBBC82" fill-opacity="0.6"/>
<path opacity="0.2" d="M178.493 22.4944C177.938 17.3084 175.026 13.9649 173.64 12.9413C171.207 10.2119 169.48 11.5766 170.866 12.9413C172.253 14.306 173.64 19.4237 173.64 23.8591C173.64 28.2944 179.186 28.9768 178.493 22.4944Z" fill="white"/>
<ellipse opacity="0.2" cx="176.76" cy="33.071" rx="1.73333" ry="2.72944" fill="white"/>
<ellipse opacity="0.4" rx="1.71048" ry="2.7661" transform="matrix(0.412706 -0.910864 0.915697 0.40187 164.398 8.44614)" fill="white"/>
<defs>
<linearGradient id="paint0_linear" x1="92.9999" y1="64.8007" x2="92.9999" y2="1" gradientUnits="userSpaceOnUse">
<stop stop-color="#F45815"/>
<stop offset="0.96875" stop-color="#EF6C0D"/>
</linearGradient>
<linearGradient id="paint1_linear" x1="92.9999" y1="64.8007" x2="92.9999" y2="1" gradientUnits="userSpaceOnUse">
<stop stop-color="#EB7D17"/>
<stop offset="0.786458" stop-color="#EF5E0D"/>
</linearGradient>
<linearGradient id="paint2_linear" x1="92.9999" y1="64.8007" x2="92.9999" y2="1" gradientUnits="userSpaceOnUse">
<stop stop-color="#112B56" stop-opacity="0"/>
<stop offset="0.72718" stop-color="#DD812C"/>
</linearGradient>
<linearGradient id="paint3_linear" x1="111.586" y1="69.5772" x2="112.594" y2="3.04658" gradientUnits="userSpaceOnUse">
<stop offset="0.510417" stop-color="#CE792B" stop-opacity="0"/>
<stop offset="1" stop-color="#FFAA5C"/>
</linearGradient>
</defs>
</svg>
