<svg width="64" height="82" viewBox="0 0 64 82" fill="none" xmlns="http://www.w3.org/2000/svg">
<path d="M17.2089 144.603C25.5951 145.375 48.4365 146.589 55.2779 140.63C62.5607 134.23 57.3745 93.5128 54.9469 79.499C48.8779 76.299 38.7261 76.299 38.7261 76.299C38.7261 76.299 22.7261 78.0645 20.5192 83.9128C18.9743 87.8852 17.4296 135.444 17.2089 144.603Z" fill="#734332"/>
<path d="M17.1033 146.15C34.8688 156.522 63.9999 147.032 63.9999 147.032C63.9999 147.032 60.5792 104.66 61.462 90.2045C61.793 84.6873 58.8137 81.3769 55.0619 79.3907C57.4895 93.4045 62.6758 134.232 55.393 140.522C48.5516 146.591 25.7102 145.267 17.3239 144.494C17.1032 145.598 17.1033 146.15 17.1033 146.15Z" fill="#512D1F"/>
<path d="M31.8876 78.7265C33.1014 80.1609 34.2049 82.1472 35.3084 82.3678C37.736 82.1472 42.3705 79.0575 44.7981 77.5127C41.7084 71.1126 42.1497 63.4988 42.1497 63.4988L32.8808 63.3885C33.4325 67.5816 32.5497 74.754 31.8876 78.7265Z" fill="url(#paint0_linear)"/>
<path d="M38.2931 81.9277L35.3139 82.4795L33.3276 81.2657L30.7897 103.886L33.3276 106.535L37.8518 103.776L38.2931 81.9277Z" fill="#512D1F"/>
<path d="M35.3136 79.7199C35.4239 81.5958 35.5343 82.8096 35.5343 83.1406V83.251H35.6446C35.6446 83.251 40.7205 82.3682 46.1274 77.2923L45.7964 76.7406L44.1412 73.6509L43.8101 72.9889V73.0992C43.3688 73.6509 39.7273 76.6303 36.6377 77.9544C35.7549 78.0647 35.3136 78.8372 35.3136 79.7199Z" fill="#FBAE39"/>
<path d="M35.9706 79.6106C36.081 80.8244 36.081 81.7071 36.1913 82.3692C37.6258 81.9278 41.3776 80.714 45.4603 77.0726C45.4603 77.0726 45.681 76.8519 46.012 76.6313L44.3569 73.5416L43.8051 73.8726C42.5913 74.9761 39.612 77.183 36.9637 78.2864C36.3016 78.6175 35.9706 79.0589 35.9706 79.6106Z" fill="#512D1F"/>
<path d="M31.5517 78.9455C31.5517 78.9455 31.6621 79.1662 31.7724 79.3869V79.4972C31.7724 79.4972 31.7724 79.6076 31.8827 79.6076C32.1034 79.9386 32.3241 80.2696 32.7655 80.711L32.8759 80.8214C32.9862 80.9317 32.9862 80.9317 33.0965 81.0421C33.6482 81.5938 34.4207 82.3662 35.3035 83.0283L34.9724 79.2765C34.862 78.6145 34.6413 78.0627 34.2 77.6214C33.4275 76.9593 32.5448 75.9662 32.2137 75.3041L32.1035 76.1869L31.7724 78.2834L31.5517 78.9455Z" fill="#FBAE39"/>
<path d="M31.5497 78.5019C31.8807 78.9433 32.4324 79.6054 32.9841 80.1571C33.0945 80.2674 33.0945 80.3778 33.2049 80.3778C33.2049 80.3778 33.4256 80.7088 33.5359 80.7088C33.8669 81.0399 34.198 81.3709 34.529 81.7019L34.3083 79.495C34.3083 79.0536 34.0876 78.6123 33.6463 78.2812C33.2049 77.8399 32.7635 77.3985 32.4325 77.0674C32.4325 77.0674 32.1014 76.7364 31.8807 76.4054L31.5497 78.5019Z" fill="#512D1F"/>
<path d="M3.97491 31.3911C3.97491 31.3911 4.52665 43.9704 9.93356 49.598L13.7956 31.9428L3.97491 31.3911Z" fill="#311313"/>
<path d="M17.3308 72.7717C23.7308 75.42 31.8964 75.8614 37.855 73.2131C45.9102 69.5717 48.5585 62.8406 49.3309 59.8613C48.9999 59.751 48.6689 59.6406 48.3378 59.5303C47.8965 59.3096 47.455 59.0889 47.0137 58.7579C46.6826 58.4268 46.3516 58.0958 46.1309 57.6544C45.7998 59.4199 43.8137 67.9165 34.4343 71.9993C29.5791 74.3165 23.0688 74.4269 17.3308 72.7717Z" fill="#B45C27"/>
<path d="M8.16361 62.5077C8.71534 66.7009 12.3568 70.7836 17.212 72.7698C22.9499 74.3147 29.4603 74.3147 34.4258 72.1078C43.8051 67.9146 45.7913 59.5284 46.1223 57.7629C46.343 58.2043 46.6741 58.5353 47.0051 58.8664C47.3362 59.1974 47.7776 59.4181 48.3293 59.6388C48.6603 59.7491 48.9913 59.8595 49.3224 59.9698C49.5431 59.087 49.6534 58.5353 49.6534 58.5353C49.6534 58.5353 51.5293 53.4594 51.0879 46.5077C50.8672 43.418 50.2052 39.9973 48.6603 36.3559C45.681 29.1835 40.7154 25.8732 35.5292 24.6594C29.3499 23.2249 22.7292 24.7697 18.4257 26.2042C10.5912 28.9628 8.7154 38.4525 9.26713 47.9422C9.9292 57.4319 7.50154 56.5491 8.16361 62.5077Z" fill="#E28752"/>
<path d="M39.5011 39.3363C39.5011 39.3363 40.1631 41.2121 39.0597 41.3225C37.9562 41.5432 34.0942 40.1087 31.7769 40.1087C29.4597 40.1087 27.5838 39.7777 27.2527 39.1156C27.0321 38.5639 26.37 35.5845 27.9148 35.5845C28.9079 35.5845 38.839 38.0121 39.5011 39.3363Z" fill="#491213"/>
<path d="M14.7867 36.0275C15.2281 35.9172 15.6695 36.0275 15.7798 36.4689C15.8901 37.462 16.0005 38.8965 15.6694 39.4482C15.1177 40.331 8.93839 42.3172 8.60735 41.5448C8.27631 40.7723 7.94532 40.2206 8.3867 39.5585C8.71773 39.1172 12.0281 36.4689 14.7867 36.0275Z" fill="#491213"/>
<path d="M37.6319 45.516C37.6319 45.516 33.8802 41.2126 30.1284 42.9781C26.3767 44.854 26.2664 48.7161 26.2664 48.7161C26.2664 48.7161 28.8042 52.0264 33.1077 50.8126C36.8594 49.8195 37.6319 45.516 37.6319 45.516Z" fill="white"/>
<path d="M28.0304 47.0623C28.1408 49.2692 29.796 50.9244 31.7822 50.814C33.6581 50.7037 35.0925 48.8278 34.9822 46.6209C34.8718 44.414 33.2167 42.7588 31.2305 42.8692C29.3546 42.9795 27.9201 44.8554 28.0304 47.0623Z" fill="#81423E"/>
<path d="M29.7935 46.9508C29.9039 48.0543 30.6762 48.8267 31.559 48.7164C32.4418 48.606 33.1038 47.7232 33.1038 46.7301C32.9935 45.6267 32.2211 44.8543 31.3383 44.9646C30.4556 45.075 29.7935 45.9577 29.7935 46.9508Z" fill="#341310"/>
<path d="M36.3084 46.7286C36.3084 47.7217 35.6463 48.4941 34.6532 48.4941C33.6601 48.4941 32.8878 47.832 32.8878 46.8389C32.8878 45.8458 33.5498 45.0734 34.543 45.0734C35.4257 44.9631 36.3084 45.7355 36.3084 46.7286Z" fill="white"/>
<path d="M16.9977 47.722C16.9977 47.722 15.8943 43.0875 13.0253 43.0875C10.1563 43.1979 10.1563 45.4048 10.1563 45.4048C10.1563 45.4048 10.046 49.7082 13.1357 50.7013C16.115 51.6944 16.9977 47.722 16.9977 47.722Z" fill="white"/>
<path d="M10.7051 47.062C10.8154 48.8275 12.0293 50.262 13.2431 50.1517C14.5672 50.0413 15.5603 48.4965 15.4499 46.731C15.3396 44.9655 14.1258 43.531 12.912 43.6413C11.5878 43.6413 10.5947 45.1861 10.7051 47.062Z" fill="#81423E"/>
<path d="M11.9136 46.9511C11.9136 47.8338 12.4653 48.4959 13.1274 48.3855C13.7894 48.3855 14.2308 47.6131 14.1204 46.7304C14.1204 45.8476 13.5687 45.1855 12.9066 45.2959C12.3549 45.4062 11.9136 46.0683 11.9136 46.9511Z" fill="#341310"/>
<path d="M16.1079 46.8413C16.1079 47.724 15.6666 48.4964 15.0045 48.4964C14.3424 48.4964 13.7907 47.8344 13.7907 46.9516C13.7907 46.0688 14.2321 45.2964 14.8941 45.2964C15.5562 45.1861 16.1079 45.9585 16.1079 46.8413Z" fill="white"/>
<path d="M37.6319 45.517C37.6319 45.517 34.6525 43.1998 30.7905 43.6412C27.2594 44.0825 26.2664 48.8274 26.2664 48.8274C26.2664 48.8274 26.2663 41.986 31.1215 41.5446C36.3077 41.1032 37.6319 45.517 37.6319 45.517Z" fill="#81361A"/>
<path d="M16.9972 47.7219C16.9972 47.7219 13.3558 40.9909 10.1558 45.2943C10.1558 45.2943 10.1559 42.2047 13.2456 42.4253C16.3352 42.646 16.9972 47.7219 16.9972 47.7219Z" fill="#81361A"/>
<path d="M20.0894 56.3281C21.7446 55.8867 22.186 56.5487 22.186 56.5487L22.2964 56.6591L22.186 56.7694C21.4136 57.4315 19.648 57.4315 19.648 57.4315C19.5377 57.4315 19.0964 57.3212 19.0964 56.9901C19.0964 56.6591 19.8687 56.4384 20.0894 56.3281Z" fill="#802518"/>
<path d="M14.5624 55.8885C15.1141 56.6609 15.9969 57.2126 16.7694 57.5437H16.8796L18.9762 57.654L18.3142 57.323C18.3142 57.323 16.2176 56.3299 15.3348 55.3368C15.0038 54.8954 14.8934 54.454 14.8934 54.0126C15.0038 53.3506 15.2245 53.1299 16.4383 52.4678C17.2107 52.0264 17.9831 50.4816 18.4245 48.7161H17.4314C17.1004 50.1506 16.5487 51.3643 15.9969 51.6954C14.5625 52.4678 14.2314 52.9092 14.0107 53.7919C13.9004 54.454 14.121 55.2264 14.5624 55.8885Z" fill="#802518"/>
<path d="M20.6366 64.6044C25.4918 65.8182 29.9056 63.6113 31.1194 62.9492C30.8987 62.7285 30.7884 62.3975 30.8987 61.9561C30.8987 61.7354 31.009 61.7354 31.1194 61.7354C31.2297 61.7354 31.4504 61.8458 31.6711 62.0665C32.1125 62.6182 32.5539 63.7216 32.3332 64.2734C32.2228 64.494 32.2229 64.6044 32.1125 64.6044C31.8918 64.6044 31.6711 64.163 31.5608 63.7216C28.9125 65.2665 26.0435 65.5975 23.9469 65.5975C21.9607 65.5975 20.5263 65.2665 20.5263 65.2665H20.4159V64.6044H20.6366Z" fill="#802518"/>
<path d="M0 35.4731C5.29656 33.8179 9.48967 35.2524 13.3517 36.4662C16 37.349 18.4276 38.2317 20.8552 38.011C24.0552 37.68 26.2622 36.2455 27.6966 35.1421C26.8139 37.1283 26.4828 39.0041 26.4828 39.0041C28.0277 38.5628 29.4621 38.1214 30.7863 37.4593C38.1794 34.149 42.3725 28.5214 42.4828 28.3007C42.3725 28.411 41.4897 31.0593 44.138 33.3765C46.1242 34.9214 51.3105 27.8593 54.4001 23.1145C50.7587 17.7076 41.7104 11.7489 26.8139 11.1972C6.95174 10.4248 0 35.4731 0 35.4731Z" fill="#491213"/>
<path d="M40.0514 37.6794C43.1411 37.569 45.5686 37.1277 47.5549 36.3552C46.6721 38.4518 45.8997 41.2104 45.8997 43.7484C46.01 48.8242 49.541 54.2312 49.541 54.2312C49.541 54.2312 60.9066 38.2311 55.8307 26.2035C55.4997 25.2104 55.0583 24.1069 54.2858 23.0035C51.1962 27.638 46.0099 34.8104 44.0237 33.2656C41.2651 31.0587 42.2583 28.4104 42.3686 28.1897C42.2583 28.4104 36.4099 36.2449 26.3685 38.8932C33.0996 38.0104 37.8445 35.6932 40.8238 33.5966C40.2721 35.8035 40.0514 37.6794 40.0514 37.6794Z" fill="#311313"/>
<path d="M31.8909 14.1768C31.8909 14.1768 18.8701 16.8251 14.2357 26.8665C14.2357 26.8665 16.0011 18.1492 21.9598 15.5009C21.9598 15.5009 11.146 17.7078 5.29773 28.0803C5.29773 28.0803 11.477 7.55608 31.8909 14.1768Z" fill="#813131"/>
<path d="M13.1284 36.3549C13.1284 36.3549 13.2387 36.4653 13.3491 36.4653C15.9974 37.348 18.425 38.2308 20.8525 38.0101C24.0526 37.6791 26.2595 36.2446 27.694 35.1411C26.8112 37.1273 26.4802 39.0032 26.4802 39.0032C28.025 38.5618 29.4595 38.1205 30.7836 37.4584C29.1284 33.3756 33.3216 25.0997 33.3216 24.9894C25.7078 35.3618 13.1284 36.3549 13.1284 36.3549Z" fill="#311313"/>
<path d="M47.0135 60.0782C47.3446 60.4092 47.786 60.7403 48.3377 60.961C48.9998 61.292 49.7722 61.4023 50.5446 61.5127C50.7653 61.5127 50.9859 61.5127 51.2066 61.5127C53.4135 61.4023 55.6204 60.0782 57.1653 58.423C59.9239 55.5541 60.6963 51.9127 59.1515 49.0437C57.9377 46.6161 55.6204 45.7333 52.7514 46.6161C52.6411 46.6161 52.5308 46.7264 52.4204 46.7264C50.8756 47.1678 49.5514 48.0506 48.448 49.154C46.6825 50.9196 45.579 53.2368 45.3583 55.7747C45.3583 57.6506 45.9101 59.0851 47.0135 60.0782Z" fill="#E28752"/>
<path d="M53.6388 49.4861C53.6388 49.4861 56.1768 48.7137 55.7354 49.8171C55.1837 50.9206 52.3147 49.9275 50.8802 53.7895C50.8802 53.7895 53.3078 54.6723 52.5354 56.7688C51.763 58.8654 48.894 58.2033 48.894 57.9826C48.894 57.762 51.6526 58.093 51.4319 56.4378C51.2112 54.7826 48.563 55.1137 48.3423 54.893C48.2319 54.6723 50.2181 50.0378 53.6388 49.4861Z" fill="#81361A"/>
<path d="M13.0165 14.1767C26.6993 14.3974 37.0718 17.487 44.4649 21.1284C48.5476 17.2663 50.9753 10.9767 52.0787 7.44561C43.0304 2.14905 32.4373 0.493869 28.1338 0.052489C26.8097 -0.0578561 25.1545 0.27318 24.0511 1.0456C19.4166 4.46629 15.2234 10.756 13.0165 14.1767Z" fill="#FECC8A"/>
<path d="M44.4714 21.02C51.4231 24.3303 55.8369 28.0821 57.9335 30.0683C59.2576 22.8958 58.9266 16.9372 58.4853 13.8475C58.2646 12.4131 57.4921 10.9786 56.3887 10.0958C55.0645 8.99236 53.5197 8.1096 52.0852 7.22684C51.0921 10.9786 48.6645 17.1579 44.4714 21.02Z" fill="#D9995A"/>
<path d="M11.5837 16.6025C23.9423 17.4853 33.6527 20.3543 41.0458 23.5543C42.37 23.0025 43.4734 22.1198 44.5769 21.1267C37.0734 17.5956 26.701 14.3956 13.1285 14.1749C12.1354 15.6094 11.5837 16.6025 11.5837 16.6025Z" fill="#B08065"/>
<path d="M40.9377 23.5551C51.8619 28.1896 57.2689 33.4861 57.2689 33.4861C57.5999 32.3827 57.8206 31.2792 58.0413 30.2861C55.9447 28.1896 51.5309 24.5482 44.5792 21.2378C43.4757 22.0102 42.2619 22.893 40.9377 23.5551Z" fill="#AF755F"/>
<defs>
<linearGradient id="paint0_linear" x1="38.2535" y1="79.6633" x2="39.0888" y2="68.5162" gradientUnits="userSpaceOnUse">
<stop offset="0.0702" stop-color="#E28752"/>
<stop offset="0.8745" stop-color="#B45C27"/>
</linearGradient>
</defs>
</svg>
