<svg width="67" height="67" viewBox="0 0 67 67" fill="none" xmlns="http://www.w3.org/2000/svg">
<path d="M58.9957 7.31532C55.8606 4.33441 35.3194 4.94414 25.4407 5.62162C5.35666 7.31531 2.29509 9.00904 1.31538 28.656C0.335675 48.3029 1.56031 59.4814 6.09146 61.1751C10.6226 62.8688 29.2298 64.4263 39.7689 65.24C50.1078 66.0382 66.7109 70.6598 65.9761 42.2056C65.2413 13.7514 62.9145 11.0415 58.9957 7.31532Z" fill="#421B05" stroke="#421B05"/>
<path d="M58.9957 3.25047C55.8606 0.269555 35.3194 0.879288 25.4407 1.55677C5.35666 3.25046 2.29509 4.94419 1.31538 24.5911C0.335675 44.2381 1.56031 55.4165 6.09146 57.1102C10.6226 58.8039 29.2336 60.0434 39.7689 61.1751C50.3528 62.312 66.7109 66.595 65.9761 38.1408C65.2413 9.68655 62.9145 6.97662 58.9957 3.25047Z" fill="url(#paint0_linear)" stroke="#421B05"/>
<mask id="mask0" mask-type="alpha" maskUnits="userSpaceOnUse" x="0" y="0" width="67" height="63">
<path d="M58.9957 3.25047C55.8606 0.269555 35.3194 0.879288 25.4407 1.55677C5.35666 3.25046 2.29509 4.94419 1.31538 24.5911C0.335675 44.2381 1.56031 55.4165 6.09146 57.1102C10.6226 58.8039 29.2336 60.0434 39.7689 61.1751C50.3528 62.312 66.7109 66.595 65.9761 38.1408C65.2413 9.68655 62.9145 6.97662 58.9957 3.25047Z" fill="url(#paint1_linear)" stroke="#112B56"/>
</mask>
<g mask="url(#mask0)">
<path opacity="0.5" d="M31.4855 38.8994C6.215 40.0356 -1.32697 16.4118 -1.93915 4.45791C22.9967 -7.73271 72.5991 -28.6343 71.5217 -14.7157C70.1749 2.68258 63.0737 37.4791 31.4855 38.8994Z" fill="#FFB489"/>
</g>
<path d="M58.9957 3.25047C55.8606 0.269555 35.3194 0.879288 25.4407 1.55677C5.35666 3.25046 2.29509 4.94419 1.31538 24.5911C0.335675 44.2381 1.56031 55.4165 6.09146 57.1102C10.6226 58.8039 29.2336 60.0434 39.7689 61.1751C50.3528 62.312 66.7109 66.595 65.9761 38.1408C65.2413 9.68655 62.9145 6.97662 58.9957 3.25047Z" fill="url(#paint2_linear)"/>
<path d="M54.6844 7.63941C52.0737 5.12672 34.968 5.64068 26.7414 6.21175C10.0164 7.6394 7.46692 9.06709 6.65106 25.628C5.83521 42.1889 6.85503 51.6115 10.6283 53.0392C14.4017 54.4669 29.9 55.5117 38.6733 56.4656C47.487 57.4239 61.1092 61.0341 60.4974 37.0493C59.8855 13.0646 57.9478 10.7803 54.6844 7.63941Z" fill="url(#paint3_linear)" fill-opacity="0.5"/>
<path d="M58.9957 3.25047C55.8606 0.269555 35.3194 0.879288 25.4407 1.55677C5.35666 3.25046 2.29509 4.94419 1.31538 24.5911C0.335675 44.2381 1.56031 55.4165 6.09146 57.1102C10.6226 58.8039 29.2336 60.0434 39.7689 61.1751C50.3528 62.312 66.7109 66.595 65.9761 38.1408C65.2413 9.68655 62.9145 6.97662 58.9957 3.25047Z" stroke="#421B05"/>
<path d="M3.69421 19.9695C3.81668 15.6787 6.82928 6.82633 17.9 5.74236C31.7383 4.3874 50.5977 5.06488 52.0673 5.06488C53.5368 5.06488 61.0071 6.0811 62.2317 17.2595" stroke="#FCA656" stroke-opacity="0.4" stroke-width="4" stroke-linecap="round"/>
<path d="M2.59204 47.4075C2.87779 49.8916 4.57595 54.9275 9.0826 55.1985C14.7159 55.5372 53.1694 60.6184 56.8433 58.5859C60.5172 56.5535 63.7013 52.1498 64.4361 47.4075" stroke="#E89F32" stroke-opacity="0.2" stroke-width="4" stroke-linecap="round"/>
<path opacity="0.4" d="M2.83696 29.4542C3.22885 32.7061 4.55145 21.3245 4.55145 21.3245C4.55145 21.3245 5.18826 16.8531 7.7355 12.5172C10.9195 7.09736 6.51087 7.77484 4.55145 12.5172C2.59204 17.2596 2.34711 25.3893 2.83696 29.4542Z" fill="white"/>
<path opacity="0.8" d="M5.86122 52.9657C6.41176 52.6504 4.62831 50.3963 4.62831 50.3963C4.62831 50.3963 3.93391 49.3647 3.36328 45.9594C2.64999 41.7029 2.52564 47.2331 3.19377 49.9275C3.86191 52.6218 5.17305 53.3598 5.86122 52.9657Z" fill="#FBBC82" fill-opacity="0.6"/>
<path opacity="0.2" d="M63.7013 22.3408C63.5053 17.192 62.4766 13.8723 61.9868 12.8561C61.1274 10.1462 60.5172 11.5011 61.0071 12.8561C61.4969 14.211 61.9868 19.2922 61.9868 23.6958C61.9868 28.0994 63.9462 28.7769 63.7013 22.3408Z" fill="white"/>
<ellipse opacity="0.2" cx="63.0889" cy="32.8418" rx="0.612317" ry="2.70992" fill="white"/>
<ellipse opacity="0.4" rx="1.56685" ry="1.42081" transform="matrix(0.159158 -0.987253 0.629766 0.776785 58.7223 8.39297)" fill="white"/>
<defs>
<linearGradient id="paint0_linear" x1="33.5" y1="64.3445" x2="33.5" y2="1" gradientUnits="userSpaceOnUse">
<stop stop-color="#F45815"/>
<stop offset="0.96875" stop-color="#EF6C0D"/>
</linearGradient>
<linearGradient id="paint1_linear" x1="33.5" y1="64.3445" x2="33.5" y2="1" gradientUnits="userSpaceOnUse">
<stop stop-color="#EB7D17"/>
<stop offset="0.786458" stop-color="#EF5E0D"/>
</linearGradient>
<linearGradient id="paint2_linear" x1="33.5" y1="64.3445" x2="33.5" y2="1" gradientUnits="userSpaceOnUse">
<stop stop-color="#112B56" stop-opacity="0"/>
<stop offset="0.72718" stop-color="#DD812C"/>
</linearGradient>
<linearGradient id="paint3_linear" x1="40.0659" y1="69.0869" x2="42.8724" y2="3.1363" gradientUnits="userSpaceOnUse">
<stop offset="0.510417" stop-color="#CE792B" stop-opacity="0"/>
<stop offset="1" stop-color="#FFAA5C"/>
</linearGradient>
</defs>
</svg>
